<svg width="46" height="46" viewBox="0 0 46 46" fill="none" xmlns="http://www.w3.org/2000/svg">
<path fill-rule="evenodd" clip-rule="evenodd" d="M0.92334 23C0.92334 17.1449 3.24927 11.5296 7.38945 7.38944C11.5296 3.24926 17.1449 0.923332 23 0.923332C28.8551 0.923332 34.4704 3.24926 38.6106 7.38944C42.7507 11.5296 45.0767 17.1449 45.0767 23C45.0767 28.8551 42.7507 34.4704 38.6106 38.6106C34.4704 42.7507 28.8551 45.0767 23 45.0767C17.1449 45.0767 11.5296 42.7507 7.38945 38.6106C3.24927 34.4704 0.92334 28.8551 0.92334 23ZM23 4.09C19.3347 4.09013 15.7485 5.15544 12.6775 7.15635C9.6066 9.15725 7.18335 12.0075 5.70257 15.3603C4.2218 18.7132 3.74733 22.4241 4.33689 26.0417C4.92645 29.6592 6.55462 33.0275 9.02334 35.7367C10.5221 33.3891 12.5884 31.4573 15.0313 30.1196C17.4742 28.7819 20.2148 28.0816 23 28.0833C25.7852 28.0813 28.526 28.7815 30.969 30.1192C33.4119 31.4569 35.4781 33.3889 36.9767 35.7367C39.4454 33.0275 41.0736 29.6592 41.6631 26.0417C42.2527 22.4241 41.7782 18.7132 40.2974 15.3603C38.8167 12.0075 36.3934 9.15725 33.3225 7.15635C30.2515 5.15544 26.6653 4.09013 23 4.09ZM34.6067 37.93C33.4271 35.8971 31.734 34.2099 29.6969 33.0375C27.6598 31.8651 25.3504 31.2486 23 31.25C20.6496 31.2486 18.3402 31.8651 16.3031 33.0375C14.2661 34.2099 12.5729 35.8971 11.3933 37.93C14.7092 40.5156 18.7952 41.9167 23 41.91C27.3733 41.91 31.4 40.4233 34.6067 37.93ZM15.1667 19.6833C15.1667 17.6058 15.992 15.6134 17.461 14.1443C18.93 12.6753 20.9225 11.85 23 11.85C25.0775 11.85 27.07 12.6753 28.539 14.1443C30.008 15.6134 30.8333 17.6058 30.8333 19.6833C30.8333 21.7609 30.008 23.7533 28.539 25.2223C27.07 26.6914 25.0775 27.5167 23 27.5167C20.9225 27.5167 18.93 26.6914 17.461 25.2223C15.992 23.7533 15.1667 21.7609 15.1667 19.6833ZM23 15.0167C22.3872 15.0167 21.7803 15.1374 21.2142 15.3719C20.648 15.6064 20.1335 15.9502 19.7002 16.3835C19.2668 16.8168 18.9231 17.3313 18.6886 17.8975C18.454 18.4637 18.3333 19.0705 18.3333 19.6833C18.3333 20.2962 18.454 20.903 18.6886 21.4692C18.9231 22.0354 19.2668 22.5498 19.7002 22.9832C20.1335 23.4165 20.648 23.7602 21.2142 23.9948C21.7803 24.2293 22.3872 24.35 23 24.35C24.2377 24.35 25.4247 23.8583 26.2998 22.9832C27.175 22.108 27.6667 20.921 27.6667 19.6833C27.6667 18.4457 27.175 17.2587 26.2998 16.3835C25.4247 15.5083 24.2377 15.0167 23 15.0167Z" fill="black"/>
</svg>
