<svg width="41" height="36" viewBox="0 0 41 36" fill="none" xmlns="http://www.w3.org/2000/svg">
<path d="M3.08317 35.5L39.4373 19.9167C39.8131 19.7566 40.1336 19.4895 40.3588 19.1487C40.5841 18.808 40.7042 18.4085 40.7042 18C40.7042 17.5915 40.5841 17.192 40.3588 16.8512C40.1336 16.5105 39.8131 16.2434 39.4373 16.0833L3.08317 0.499997C2.76838 0.362694 2.42436 0.305919 2.08215 0.334795C1.73993 0.36367 1.41029 0.477287 1.12296 0.665396C0.835627 0.853506 0.599646 1.11019 0.436305 1.41229C0.272964 1.71439 0.187402 2.0524 0.187337 2.39583L0.166504 12C0.166504 13.0417 0.937337 13.9375 1.979 14.0625L31.4165 18L1.979 21.9167C0.937337 22.0625 0.166504 22.9583 0.166504 24L0.187337 33.6042C0.187337 35.0833 1.70817 36.1042 3.08317 35.5Z" fill="black"/>
</svg>
